<mxfile host="Electron" modified="2024-04-12T06:36:28.566Z" agent="Mozilla/5.0 (X11; Linux x86_64) AppleWebKit/537.36 (KHTML, like Gecko) draw.io/24.1.0 Chrome/120.0.6099.109 Electron/28.1.0 Safari/537.36" etag="6SgNYtcd0WbzoIJ8o3rz" version="24.1.0" type="device">
  <diagram name="第 1 页" id="rknQbzqb8H6HtzvlB-DZ">
    <mxGraphModel dx="318" dy="143" grid="1" gridSize="10" guides="1" tooltips="1" connect="1" arrows="1" fold="1" page="0" pageScale="1" pageWidth="827" pageHeight="1169" math="0" shadow="0">
      <root>
        <mxCell id="0" />
        <mxCell id="1" parent="0" />
        <mxCell id="-0DMYWxXgTRLNa_72Sri-3" value="a" style="text;strokeColor=none;align=center;fillColor=none;html=1;verticalAlign=middle;whiteSpace=wrap;rounded=0;" parent="1" vertex="1">
          <mxGeometry x="390" y="455" width="10" height="10" as="geometry" />
        </mxCell>
        <mxCell id="-0DMYWxXgTRLNa_72Sri-4" value="b" style="text;strokeColor=none;align=center;fillColor=none;html=1;verticalAlign=middle;whiteSpace=wrap;rounded=0;" parent="1" vertex="1">
          <mxGeometry x="390" y="495" width="10" height="10" as="geometry" />
        </mxCell>
        <mxCell id="-0DMYWxXgTRLNa_72Sri-5" value="out" style="text;strokeColor=none;align=center;fillColor=none;html=1;verticalAlign=middle;whiteSpace=wrap;rounded=0;" parent="1" vertex="1">
          <mxGeometry x="520" y="475" width="20" height="10" as="geometry" />
        </mxCell>
        <mxCell id="VYVGJq6OxGzUQ4K7pVfi-1" value="XOR" style="verticalLabelPosition=middle;shadow=0;dashed=0;align=center;html=1;verticalAlign=middle;shape=mxgraph.electrical.logic_gates.logic_gate;operation=xor;labelPosition=center;" vertex="1" parent="1">
          <mxGeometry x="400" y="440" width="120" height="80" as="geometry" />
        </mxCell>
      </root>
    </mxGraphModel>
  </diagram>
</mxfile>
